<svg id="logo" xmlns="http://www.w3.org/2000/svg" viewBox="0 0 108.79 248.44">
  <g id="single">
    <path d="M53.14,99.72,28.5,6.73S26-2,21.64,5.58C17,13.5,6.6,30.13,6.6,30.13s-.75,4.79,2,5.79,4-4,5.79-2,18.88,75.76,18.88,75.76L57.7,198.52a20.62,20.62,0,0,1,0,12.58c-2.27,6.3,0,9.07,3.27,7.56s7.58-15.25,15.1-23.66c2.47-2.77-2.77-16.87-4.28-22.91s-15.61-58.79-15.86-61,8.81-12,11.08-10.25,6.82,21.65,8.71,29c6.39,24.83,11.75,34.88,8.91,38.92-3.39,4.81,2,9.38,4.53,3.09S102,152.46,102,152.46s-8.3-34.12-10.82-41.35-7.88-26.3-27.69-17.55A104.41,104.41,0,0,0,53.14,99.72Z" fill="none" stroke="#fff" stroke-miterlimit="10" stroke-width="3"/>
    <path d="M14.12,121.72C17.33,129,21.06,133.93,27,140.84c7.19,8.36,3.6,28.6-1.7,39.2s-5.69,49.37,49.21,46.34c0,0,16.57-1.89,27.4-8.33s1.75,15.15-14.53,22.72-42.62,8.66-61.56-2.32S3,202.88,13.17,183.21s4.54-25-2.27-32.17-16.92-29.53,1-48.64c13.36-14.22,14.93-3.9,5.4,3.21C14.33,107.84,11.75,116.38,14.12,121.72Z" fill="none" stroke="#fff" stroke-miterlimit="10" stroke-width="3"/>
  </g>
</svg>
