<svg xmlns="http://www.w3.org/2000/svg" xmlns:xlink="http://www.w3.org/1999/xlink" width="16091" height="11697" viewBox="0 0 16091 11697">
  <defs>
    <style type="text/css">
      .cls-1 {
        clip-path: url(#clip-Artboard_1);
      }

      .cls-2, .cls-3 {
        fill: #fff;
      }

      .cls-3 {
        stroke: #fff;
        stroke-miterlimit: 10;
        stroke-width: 3px;
      }

      @media (min-width: 318px) {
        #tagline, #hauer {
          display: none;
        }
      }

      @media (min-width: 768px) {
        #hauer, {
          display: block;
        }
      }

      @media (min-width: 1200px) {
        #tagline {
          display: block;
        }
      }
    </style>
    <clipPath id="clip-Artboard_1">
      <rect width="16091" height="11697"/>
    </clipPath>
  </defs>
  <g id="Artboard_1" data-name="Artboard – 1" class="cls-1">
    <rect width="16091" height="11697"/>

    <g id="tagline" transform="translate(5319.687 7539.913)">
      <path id="Path_1" data-name="Path 1" class="cls-2" d="M635.01,362.535S490.484,278.2,598.878,723.9c108.394,445.654,168.486,602.256-2.1,630.368C426.24,1382.379,313.788,1273.985,229.5,904.555c-84.338-369.381-212.827-702.631,0-730.744,212.78-28.113,164.62,96.367,260.987,80.329,96.366-16.085,84.29-92.643,232.874-84.482,148.535,8.162,192.733,92.5,273.014,76.416,80.329-16.037,108.442-81.761,248.959-77.036,140.517,4.773,289.1,8.783,441.645,530.756,152.592,521.973,124.48,622.35,0,646.453s-333.25-164.62-393.486-742.82c0,0-8.018-240.893-116.412-232.874-108.443,8.018-45.821,381.457,23.245,582.208,69.113,200.752,77.131,373.391-63.386,385.466-140.564,12.028-309.194-177.459-345.325-574.571S635.01,362.535,635.01,362.535Z" transform="translate(-113.258 194.813)"/>
      <path id="Path_2" data-name="Path 2" class="cls-2" d="M206.243,827.15S45.631,160.65,266.477,168.669c220.845,8.067,281.081,220.846,337.259,453.72,56.225,232.874,100.376,453.72,172.686,449.711,72.263-4.009,12.028-305.137-44.2-485.842C676.047,405.6,676.047,176.592,836.658,168.621,997.221,160.65,1062.182,361.4,1062.182,361.4s296.4,714.706,39.473,935.552C844.676,1517.753,362.844,1417.377,206.243,827.15Z" transform="translate(1596.34 175.852)"/>
      <path id="Path_3" data-name="Path 3" class="cls-2" d="M651.452,621.471s429.617,136.507,429.617,397.495-96.367,389.857-313.156,425.8c-216.837,35.941-437.682-140.707-401.551-381.6,0,0,48.207-132.5,204.809,36.132,156.554,168.629,240.893-124.48,104.385-156.6S157.591,834.3,173.628,533.124c16.085-301.128,333.3-405.513,538.059-353.3,204.761,52.169,265,176.649,200.751,273.014s-137.462,17.374-180.658-28.112C655.461,344.447,490.842,509.068,651.452,621.471Z" transform="translate(2684.929 108.516)"/>
      <path id="Path_4" data-name="Path 4" class="cls-2" d="M322.338,170.844s-190.68,3.675-110.017,366.708S373.7,1311.3,608.384,1340.655c234.687,29.306,44.007-586.743,22-678.433S531.347,134.187,322.338,170.844Z" transform="translate(3586.276 188.617)"/>
      <path id="Path_5" data-name="Path 5" class="cls-2" d="M319.311,161.233s-132.021-7.3-128.394,146.721c3.675,154.024,157.7,128.68,157.7,128.68S465.984,408.807,458.634,299.7,319.311,161.233,319.311,161.233Z" transform="translate(3512.315 -161.178)"/>
      <path id="Path_6" data-name="Path 6" class="cls-2" d="M653.181,426.368S550.514,391.286,623.875,820.33c60.234,352.391,219.986,361.458,352.008,280.8,158.988-97.131,249.388,40.332,157.7,139.371-91.689,98.992-429.043,241.99-645.4,76.988-288.145-219.747-381.409-678.431-157.7-986.432C554.189,23,990.583,202.133,953.879,444.7,929.012,609.317,785.2,602.4,755.848,507.032,755.848,507.032,733.892,408.04,653.181,426.368Z" transform="translate(4223.538 142.101)"/>
      <path id="Path_7" data-name="Path 7" class="cls-2" d="M694.326,426.368S591.659,391.286,664.972,820.33c60.235,352.391,220.035,361.458,352.056,280.8,158.988-97.131,249.34,40.332,157.7,139.371-91.688,98.992-429.043,241.99-645.4,76.988-288.144-219.747-381.408-678.431-157.7-986.432C595.286,23,1031.681,202.133,995.024,444.7c-24.867,164.62-168.677,157.7-198.032,62.335C796.992,507.032,774.988,408.04,694.326,426.368Z" transform="translate(6146.237 142.101)"/>
      <path id="Path_8" data-name="Path 8" class="cls-2" d="M423.839,187.589s-132.02-7.3-128.346,146.721,157.7,128.679,157.7,128.679,117.32-27.826,109.969-136.936C555.859,216.942,423.839,187.589,423.839,187.589Z" transform="translate(8399.041 1070.434)"/>
      <path id="Path_9" data-name="Path 9" class="cls-2" d="M798.832,168.35c-187.006-.573-567.125,66.344-527.892,542.975C310.126,1188,638.984,1381.069,988.891,1375.008c349.956-6.014,422.364-162.9,431.384-603.3C1429.343,331.252,1038.054,169.065,798.832,168.35ZM943.643,1222.7c-187-22.624-265.472-345.421-277.547-586.791-12.028-241.322,135.79-274.494,135.79-274.494C994.954,349.342,1000.968,632.9,1016.05,705.31S1130.7,1245.326,943.643,1222.7Z" transform="translate(7123.481 173.784)"/>
    </g>

    <g id="single" transform="translate(13.517)">
      <path id="Path_10" data-name="Path 10" class="cls-3" d="M2232.348,4643.635,1056.428,205.093S938.821-210.061,729.24,150.3c-219.892,378.116-718,1172.054-718,1172.054s-36.036,228.292,96.128,276.308c132.116,48.064,192.208-192.208,276.308-96.08,84.1,96.08,901,3616.062,901,3616.062L2450,9359.438s108.108,300.316,0,600.633c-108.108,300.363,0,432.528,156.172,360.409,156.172-72.073,361.744-727.785,720.816-1129.241,118.084-132.021-132.164-804.916-204.236-1093.252s-745.254-2805.94-757.043-2910.66c-11.837-104.719,420.643-573.235,528.8-489.135,108.108,84.052,325.708,1033.255,415.775,1382.876,305.232,1184.988,561.112,1664.721,425.177,1857.6-161.565,229.246,96.081,447.658,216.216,147.294,120.136-300.316,612.708-925,612.708-925S4167.936,5532.317,4047.8,5187.326s-376.3-1255.247-1321.5-837.563C2726.3,4349.763,2422.5,4507.462,2232.348,4643.635Z" transform="translate(215.919 -3.207)"/>
      <path id="Path_11" data-name="Path 11" class="cls-3" d="M588.174,1357.609c153.26,345.039,331.15,582.5,614.808,912.595,342.987,399.165,171.875,1365.074-81.093,1871.058C868.873,4647.246,850.115,6497.683,3470.436,6353.109c0,0,790.835-90.352,1307.988-397.588,517.2-307.19,83.479,722.867-693.61,1084.278-777.042,361.409-2034.437,413.436-2937.963-110.638C243.278,6405.088,54.983,5231.316,542.878,4292.279c487.942-938.99,216.884-1192.006-108.395-1535.327C109.2,2413.584-372.867,1347.395,484.027,435.516c637.862-678.814,712.7-186.1,257.646,152.879C598.34,695.166,474.958,1102.827,588.174,1357.609Z" transform="translate(-2.087 4333.066)"/>
    </g>

    <g id="hauer" transform="translate(4835.337 4143.176)">
      <path id="Path_12" data-name="Path 12" class="cls-3" d="M979.667,2736.795S461.752,906.356,347.2,419.034c-14.8-63-169.061-333.871,111.5-327.809,280.509,6.062,826.537,0,826.537,0s172.209,23.627,161.424,292.728c-10.74,269.1,0,570.228,75.364,274.351s312.105-716.139,781.673-471.38c392.912,204.761,198.793,664.447,122.952,764.441-99.231,130.828-388.713,308.955-538.632,38.088,0,0-129.2-88.825-96.891,158.75,32.265,247.527,10.738,1132.1,139.944,1588.592Z" transform="translate(8706.632 -38.005)"/>
      <path id="Path_13" data-name="Path 13" class="cls-3" d="M2571.416,100.489l-896.892-9.355c-203.234,275.688-167.294,56.846-404.8,9.355C1032.175,52.951,6.031,147.981,110.559,1307.147,215.04,2466.314,1002.488,2698.426,1401.7,2719.14c416.682,21.622,742.151-167.34,742.151-167.34,0,85.531,142.522,161.565,142.522,161.565s275.5,9.5,579.583,0c304.04-9.5,380.025-66.536,380.025-104.528S2571.416,100.489,2571.416,100.489Zm-829.164,2260.3c-375.395,122.952-448.564-352.82-577.054-882.621-122.665-505.6-203.711-1026.811,19-1054.638,377.591-47.205,608.078,456.059,712.607,1102.13C2001.33,2171.774,2089.773,2246.949,1742.252,2360.785Z" transform="translate(-103.11 -37.914)"/>
      <path id="Path_14" data-name="Path 14" class="cls-3" d="M168.223,91.127s287.858,1560.289,457.92,1951.148c152.879,351.292,291.677,696.9,1010.3,694.375,614.14-2.1,681.3-213.3,758.093-299.648,0,0,86.343-124.766,105.531,163.092V2736.65h988.389s-182.327-1086.522-335.826-1623.913C2999.08,575.347,2883.907,91.127,2883.907,91.127H1924.3s-95.937,136.03-47.968,329.336c47.968,193.258,470.186,1507.929,412.625,1623.1-57.562,115.125-393.437,489.374-546.984,182.328-153.5-307.093-345.422-1573.8-374.25-1698.514-28.781-124.766-76.75-402.315-259.078-436.251Z" transform="translate(2939.615 -37.906)"/>
      <path id="Path_15" data-name="Path 15" class="cls-3" d="M2580.712,1644.623c-172.735-38.375-364.657,220.7-326.281,499.015,0,0-863.625,842.193-997.985-677.668h1420.2S2628.68,80.468,1285.229,90.062s-1544.968,2537.8,297.5,2698.693c0,0,1017.17,93.789,1161.124-865.819C2743.853,1922.935,2753.446,1683,2580.712,1644.623ZM1089.631,715.37C1092.4,579.722,1188,352.289,1367.944,381.786c179.942,29.449,192.207,134.264,264.71,461.5,44.675,201.8-236.119,194.69-236.119,194.69C1181.7,1072.008,1086.815,851.066,1089.631,715.37Z" transform="translate(6246.403 -90.012)"/>
    </g>
  </g>
</svg>
